<svg width="28" height="29" viewBox="0 0 28 29" fill="none" xmlns="http://www.w3.org/2000/svg">
<rect x="0.5" y="1" width="27" height="27" rx="13.5" fill="white"/>
<g clip-path="url(#clip0_1006_11940)">
<path fill-rule="evenodd" clip-rule="evenodd" d="M19.8486 10.0483C19.8965 10.0004 19.9345 9.94354 19.9604 9.88097C19.9863 9.81841 19.9996 9.75135 19.9996 9.68364C19.9996 9.61592 19.9863 9.54886 19.9604 9.4863C19.9345 9.42373 19.8965 9.36689 19.8486 9.319C19.8007 9.27112 19.7439 9.23314 19.6813 9.20722C19.6187 9.18131 19.5517 9.16797 19.484 9.16797C19.4162 9.16797 19.3492 9.18131 19.2866 9.20722C19.2241 9.23314 19.1672 9.27112 19.1193 9.319L14.3338 14.1056L9.54827 9.319C9.50038 9.27112 9.44354 9.23314 9.38097 9.20722C9.31841 9.18131 9.25135 9.16797 9.18364 9.16797C9.11592 9.16797 9.04886 9.18131 8.9863 9.20722C8.92373 9.23314 8.86689 9.27112 8.819 9.319C8.77112 9.36689 8.73314 9.42373 8.70722 9.4863C8.68131 9.54886 8.66797 9.61592 8.66797 9.68364C8.66797 9.75135 8.68131 9.81841 8.70722 9.88097C8.73314 9.94354 8.77112 10.0004 8.819 10.0483L13.6056 14.8338L8.819 19.6193C8.7223 19.716 8.66797 19.8472 8.66797 19.984C8.66797 20.1207 8.7223 20.2519 8.819 20.3486C8.91571 20.4453 9.04687 20.4996 9.18364 20.4996C9.3204 20.4996 9.45156 20.4453 9.54827 20.3486L14.3338 15.562L19.1193 20.3486C19.216 20.4453 19.3472 20.4996 19.484 20.4996C19.6207 20.4996 19.7519 20.4453 19.8486 20.3486C19.9453 20.2519 19.9996 20.1207 19.9996 19.984C19.9996 19.8472 19.9453 19.716 19.8486 19.6193L15.062 14.8338L19.8486 10.0483Z" fill="#909294"/>
</g>
<rect x="0.5" y="1" width="27" height="27" rx="13.5" stroke="#909294"/>
<defs>
<clipPath id="clip0_1006_11940">
<rect width="12" height="12" fill="white" transform="translate(8 8.5)"/>
</clipPath>
</defs>
</svg>

